<?xml version="1.0" encoding="UTF-8" standalone="no"?>
<!-- Generator: Adobe Illustrator 12.0.0, SVG Export Plug-In . SVG Version: 6.00 Build 51448)  -->

<svg
   xmlns:dc="http://purl.org/dc/elements/1.1/"
   xmlns:cc="http://creativecommons.org/ns#"
   xmlns:rdf="http://www.w3.org/1999/02/22-rdf-syntax-ns#"
   xmlns:svg="http://www.w3.org/2000/svg"
   xmlns="http://www.w3.org/2000/svg"
   xmlns:sodipodi="http://sodipodi.sourceforge.net/DTD/sodipodi-0.dtd"
   xmlns:inkscape="http://www.inkscape.org/namespaces/inkscape"
   version="1.1"
   id="Layer_1"
   width="56"
   height="32"
   viewBox="0 0 56 32"
   overflow="visible"
   enable-background="new 0 0 653 379"
   xml:space="preserve"
   inkscape:version="0.91 r13725"
   sodipodi:docname="icon-bike.svg"
   style="overflow:visible"><metadata
     id="metadata9"><rdf:RDF><cc:Work
         rdf:about=""><dc:format>image/svg+xml</dc:format><dc:type
           rdf:resource="http://purl.org/dc/dcmitype/StillImage" /><dc:title></dc:title></cc:Work></rdf:RDF></metadata><defs
     id="defs7" /><sodipodi:namedview
     pagecolor="#ffffff"
     bordercolor="#666666"
     borderopacity="1"
     objecttolerance="10"
     gridtolerance="10"
     guidetolerance="10"
     inkscape:pageopacity="0"
     inkscape:pageshadow="2"
     inkscape:window-width="1037"
     inkscape:window-height="757"
     id="namedview5"
     showgrid="false"
     inkscape:zoom="7.5957121"
     inkscape:cx="23.491191"
     inkscape:cy="25.102764"
     inkscape:window-x="241"
     inkscape:window-y="0"
     inkscape:window-maximized="0"
     inkscape:current-layer="Layer_1" /><path
     d="M 35.538327,21.832702 42.430603,20.707657 38.0868,15.065248 c -2.25154,1.963079 -2.53153,4.319839 -2.548473,6.767454 z m -1.895947,0.412723 c -0.01111,-0.244649 -0.05043,-0.637845 -0.05043,-0.913157 0,-2.792074 0.903151,-5.505317 3.354639,-7.760488 l -2.553167,-3.056736 -3.951574,12.054911 3.200523,-0.32453 z M 18.475222,10.247562 18.694372,9.5767138 32.768842,9.5583374 29.0248,20.908673 l -0.161369,-1.184189 0.430556,0 -0.05382,-0.753552 -1.883922,0 0.05376,0.699733 0.484458,0 0.107634,1.291829 c 0,0 -9.47295,-10.660932 -9.526848,-10.714832 z m -6.233456,10.903157 c 1.890136,-1.501134 3.361336,-2.932151 4.422232,-5.795474 1.674535,1.518966 2.62981,3.716204 2.62981,5.976943 0,4.489848 -3.6619,8.151668 -8.151669,8.151668 -4.4897682,0 -8.1517501,-3.66182 -8.1517501,-8.151668 0,-4.489847 3.6619011,-8.151669 8.1516691,-8.151669 1.432953,0 2.897697,0.413934 4.078821,1.111165 -0.799466,2.526448 -1.577225,3.829331 -4.037104,5.809515 -0.597098,0.02526 -1.051215,0.50463 -1.051215,1.076552 0,0.592901 0.483569,1.076468 1.07647,1.076468 0.592901,-8.1e-5 1.032736,-0.48365 1.032736,-1.1035 z m 23.585425,2.413808 c 0.922032,3.435727 4.201872,5.919493 7.8319,5.919493 4.48993,0 8.151831,-3.661984 8.151831,-8.151832 0,-4.489847 -3.661982,-8.15175 -8.151831,-8.15175 -1.432951,0 -3.091029,0.338086 -4.300555,1.046293 l 4.424493,5.874468 c 0.541181,0.0085 1.012242,0.492041 1.012242,1.076552 0,0.592901 -0.483648,1.076468 -1.076551,1.076468 -0.164035,0 -0.336392,-0.04204 -0.481954,-0.110541 l -7.409575,1.420851 z M 15.802887,12.404937 18.69058,4.4383678 17.775487,2.8775241 19.60559,0.88596255 l 3.929143,0 0.05382,1.13037015 -3.444685,0 -0.699731,0.7535539 0.80737,1.4532041 -1.015226,3.5983989 14.100937,0 0.215437,-0.6580972 C 32.419305,7.0158961 30.464618,6.3177725 29.997753,5.9121496 c -0.466865,-0.405623 -0.05802,-0.7784045 0.473725,-0.7957531 2.783116,-0.1183767 6.917774,-0.351481 7.703281,-0.3548696 0.785424,-0.00343 0.865792,0.3915013 0.340104,0.9666521 -0.525852,0.57507 -0.985293,1.0927691 -2.977259,1.4014855 l -0.538272,1.4532869 3.336805,4.1336066 c 1.572624,-0.954629 3.474781,-1.451349 5.323039,-1.451349 5.544938,0 10.067303,4.522365 10.067303,10.067221 0,5.544855 -4.522365,10.067224 -10.067303,10.067224 -4.56166,0 -8.572782,-3.145978 -9.751725,-7.493894 l -3.065936,0.55094 c -0.1312,0.361487 -0.437253,0.638574 -0.802694,0.855545 l 0.546991,2.593744 0.699733,0 0.05374,0.699733 -2.206841,0.107654 0,-0.753554 0.538357,0 -0.666815,-2.592209 C 28.012227,25.205254 27.492509,24.356169 27.78783,23.513455 l -10.015976,-11.32791 -0.448547,1.215336 c 2.430993,1.914907 3.885972,4.864326 3.885972,7.93171 0,5.544858 -4.522365,10.067223 -10.067221,10.067223 -5.5448552,0 -10.067222,-4.522771 -10.067222,-10.067626 0,-5.544854 4.5223668,-10.067142 10.067222,-10.067142 1.612325,0 3.264025,0.393197 4.660829,1.139891 z"
     id="path3"
     inkscape:connector-curvature="0"
     style="clip-rule:evenodd;fill:#1f1a17;fill-rule:evenodd" /></svg>